PathFileType	4	(X/Y/Z)	./resultDataOpenSim/trcMotMarkerGrf/sub06/qtm-14-01.trc
DataRate	CameraRate	NumFrames	NumMarkers	Units	OrigDataRate	OrigDataStartFrame	OrigNumFrames
250.000000	250.000000	12	24	m	250.000000	479	547
Frame#	Time	L.Toe.Tip			R.Toe.Tip			L.Ankle.Lat			R.Ankle.Lat			L.Ankle.Med			R.Ankle.Med			L.Heel			R.Heel			L.Knee.Lat			R.Knee.Lat			L.Knee.Med			R.Knee.Med			L.Thigh.Upper			R.Thigh.Upper			L.ASIS			R.ASIS			V.Sacral			L.Acromium			R.Acromium			C7			L.Elbow			R.Elbow			L.Wrist.Lat			R.Wrist.Lat
		X1	Y1	Z1	X2	Y2	Z2	X3	Y3	Z3	X4	Y4	Z4	X5	Y5	Z5	X6	Y6	Z6	X7	Y7	Z7	X8	Y8	Z8	X9	Y9	Z9	X10	Y10	Z10	X11	Y11	Z11	X12	Y12	Z12	X13	Y13	Z13	X14	Y14	Z14	X15	Y15	Z15	X16	Y16	Z16	X17	Y17	Z17	X18	Y18	Z18	X19	Y19	Z19	X20	Y20	Z20	X21	Y21	Z21	X22	Y22	Z22	X23	Y23	Z23	X24	Y24	Z24

479	1.912	1.6431876	0.03304508	-0.087070152	1.7970811	0.07532776	0.15842217	1.519449	0.078072107	-0.11388645	1.671045	0.13034494	0.15713574	1.5183518	0.093924934	-0.028049048	1.7117183	0.14107672	0.074461162	1.4441677	0.055753123	-0.070008083	1.6247779	0.11082758	0.088863292	1.5996549	0.44263688	-0.12794623	1.7810925	0.50666337	0.16439796	1.5732223	0.44859452	-0.0056515759	1.7706757	0.48526332	0.039434489	1.609004	0.83421262	-0.19309645	1.6137602	0.83736796	0.15634007	1.6813942	0.88639009	-0.14709801	1.684896	0.89873016	0.095798213	1.4954198	0.95693411	-0.018087656	1.6245333	1.3771124	-0.20820889	1.5948625	1.3568551	0.15204421	1.5276174	1.3959982	-0.036143613	1.6477831	1.0444553	-0.26876001	1.4826594	1.0576873	0.20645543	1.8932254	0.99501228	-0.21864113	1.5824159	0.84494578	0.2654224
480	1.916	1.643231	0.033021563	-0.087104801	1.8136481	0.075618238	0.15844504	1.5195665	0.078306143	-0.11374357	1.6866201	0.12707297	0.15827256	1.5193109	0.094149036	-0.028058837	1.7254685	0.13882597	0.075481394	1.4443065	0.05620773	-0.06971488	1.6394307	0.10660485	0.090127166	1.6011321	0.44253274	-0.12794396	1.7863602	0.50644514	0.16371415	1.5755675	0.44858829	-0.0055460552	1.7748951	0.48461475	0.038994873	1.6119461	0.83392298	-0.1929354	1.6184574	0.83710454	0.15654215	1.6849331	0.88583507	-0.14745372	1.6900109	0.89803165	0.095608524	1.4998018	0.95662562	-0.017354885	1.6287392	1.3769286	-0.20800659	1.5994677	1.356596	0.15242797	1.5320111	1.3958062	-0.035691736	1.654473	1.0438835	-0.26933809	1.4852693	1.0584817	0.20657031	1.9002332	0.99939421	-0.21616196	1.5810739	0.84474959	0.26736219
481	1.92	1.6432681	0.032999577	-0.087131991	1.8301031	0.076011232	0.1583498	1.5196831	0.078520178	-0.11361364	1.7023167	0.12388996	0.15937635	1.5202226	0.094353684	-0.028054788	1.7391603	0.13679058	0.076437014	1.4444379	0.056651817	-0.069445836	1.6541009	0.1026682	0.091172685	1.602612	0.44241624	-0.12792911	1.7914612	0.50606146	0.16303753	1.5778782	0.44846131	-0.005439486	1.7790109	0.48376194	0.038503434	1.6148948	0.83363435	-0.19274139	1.6227574	0.83671353	0.15667319	1.6885339	0.8852259	-0.14780321	1.6951114	0.89726666	0.09542619	1.5041489	0.95624592	-0.016524215	1.6329153	1.3766891	-0.20777449	1.6040633	1.3563027	0.15282578	1.5363806	1.3955598	-0.035262509	1.6608947	1.043475	-0.26932587	1.487919	1.0592452	0.20669715	1.9070977	1.0036803	-0.21372586	1.579819	0.84460364	0.26926652
482	1.924	1.6433001	0.032979965	-0.087153194	1.8464245	0.076490406	0.15814294	1.5198083	0.078722587	-0.11348985	1.7180706	0.12080796	0.16043698	1.5205331	0.094539367	-0.027905275	1.7528412	0.13489289	0.077282308	1.4445645	0.057082287	-0.069203094	1.6688746	0.098854654	0.092223286	1.6040518	0.44228513	-0.12791602	1.7964191	0.50550889	0.16236707	1.5802498	0.44826369	-0.0053404136	1.7830464	0.48269739	0.037959844	1.6178466	0.83334402	-0.19250315	1.6271729	0.83622471	0.15683436	1.6921439	0.88461304	-0.14816124	1.7002012	0.89643911	0.095251998	1.5083538	0.95580061	-0.01558584	1.637039	1.3763941	-0.20751212	1.6086048	1.3559885	0.15322519	1.540738	1.3952583	-0.03485113	1.6672028	1.0431777	-0.26904992	1.4906094	1.0599812	0.20682808	1.9138205	1.0078656	-0.21134036	1.578672	0.84450791	0.27113967
483	1.928	1.6433262	0.032962061	-0.087169852	1.862595	0.077047488	0.15784977	1.5199461	0.078921619	-0.11336739	1.7337926	0.11785034	0.16145532	1.5201614	0.094701751	-0.027600766	1.7665318	0.13303146	0.078039625	1.4446876	0.057499446	-0.068980261	1.6837709	0.0950758	0.093418987	1.6054686	0.44213998	-0.12790964	1.8012563	0.50478799	0.16169576	1.5826898	0.44803751	-0.0052503968	1.7870235	0.48142346	0.03736959	1.6207752	0.83304869	-0.19218945	1.6320334	0.83564479	0.15708769	1.695726	0.88401701	-0.14853252	1.7052884	0.89555359	0.095086174	1.512446	0.95530707	-0.014563465	1.6411247	1.3760474	-0.20723294	1.6130709	1.355663	0.15362097	1.5450941	1.3949056	-0.034442428	1.6735083	1.0429316	-0.26873968	1.4933429	1.0606893	0.20696145	1.9204143	1.0119469	-0.20900727	1.5776409	0.8444632	0.27297764
484	1.932	1.6433446	0.032942643	-0.087183346	1.8785926	0.07768438	0.15750791	1.5200919	0.079123121	-0.11324666	1.7493067	0.11501582	0.16243779	1.5196261	0.094842231	-0.027274384	1.7802393	0.13119321	0.07873529	1.4448045	0.057907814	-0.068763743	1.6987524	0.091382622	0.094703708	1.6069348	0.44198467	-0.12790059	1.8059854	0.5039055	0.16101916	1.5851702	0.44779651	-0.005167003	1.79097	0.47995357	0.03672633	1.6236239	0.83274966	-0.19174269	1.6372777	0.8349661	0.15741561	1.6992776	0.88343949	-0.14890969	1.7103875	0.89461995	0.094932582	1.5165208	0.95475315	-0.013475813	1.6451974	1.3756558	-0.20693766	1.617489	1.3553247	0.15402134	1.5494522	1.3945058	-0.034025197	1.6798543	1.0426954	-0.26848259	1.4961236	1.0613696	0.20710082	1.926896	1.0159211	-0.20672004	1.5767143	0.84446662	0.27477619
485	1.936	1.643354	0.032918544	-0.087195368	1.8943969	0.07841693	0.15714716	1.520239	0.079328977	-0.11313091	1.7644439	0.11229042	0.16338359	1.5194064	0.094976531	-0.027043645	1.7939413	0.1294411	0.079394499	1.4449135	0.058310054	-0.068549404	1.7137684	0.08787049	0.095959963	1.6085063	0.44182321	-0.1278821	1.8106183	0.50287159	0.16034011	1.5876633	0.44753835	-0.0050876228	1.7949097	0.47830804	0.036022844	1.6263528	0.83245028	-0.19112234	1.6426848	0.83419749	0.15776729	1.7028387	0.88286614	-0.14928032	1.7155052	0.89364889	0.09479951	1.520618	0.95411104	-0.012333163	1.6492716	1.3752242	-0.20661543	1.6218902	1.3549677	0.15443654	1.5538059	1.3940612	-0.033595609	1.6862315	1.0424525	-0.26828722	1.4989551	1.0620161	0.20724533	1.9332701	1.0197839	-0.20447148	1.5758786	0.84451013	0.27654005
486	1.94	1.643355	0.03288937	-0.087207233	1.9099996	0.079276824	0.15678318	1.5203836	0.079537032	-0.11302437	1.7791871	0.10969248	0.16428612	1.5195437	0.095120641	-0.026916957	1.8075824	0.12785209	0.080044665	1.4450167	0.058707041	-0.068352391	1.7287587	0.084600658	0.097134638	1.6101832	0.44165586	-0.12785915	1.8151671	0.5016985	0.15966437	1.5901524	0.44726271	-0.0050123432	1.7988453	0.47650932	0.035269023	1.6290322	0.83214281	-0.19038773	1.6480947	0.83335231	0.15810526	1.7064855	0.88227145	-0.14963674	1.720635	0.89264772	0.094696667	1.5247356	0.95339805	-0.011158281	1.6533484	1.3747542	-0.2062624	1.6262649	1.3545921	0.15486664	1.5581423	1.3935826	-0.033150775	1.6926096	1.0422008	-0.26814257	1.5018386	1.0626155	0.20739282	1.9395282	1.0235302	-0.20226258	1.5751362	0.84458478	0.27827979
487	1.944	1.6433493	0.032857792	-0.087219546	1.9254054	0.080293005	0.15642424	1.5205244	0.079744118	-0.11293214	1.7936702	0.10728857	0.16513919	1.5198473	0.095281118	-0.026846875	1.8211187	0.12646301	0.080696439	1.4451147	0.05910546	-0.068191157	1.7436361	0.081592699	0.098247854	1.6119432	0.44147773	-0.12783859	1.819646	0.50039646	0.15899761	1.5926391	0.44697391	-0.0049441331	1.8027627	0.47457699	0.034488939	1.6318362	0.83180744	-0.18969266	1.6534573	0.832428	0.15841719	1.7102848	0.88163477	-0.14997792	1.725775	0.89162257	0.094631355	1.5288778	0.95266558	-0.0099839363	1.6574216	1.3742458	-0.20588557	1.6305823	1.3542031	0.15530321	1.5624412	1.3931015	-0.032684231	1.6989715	1.0419374	-0.26803669	1.5047732	1.063164	0.20754704	1.9456648	1.0271556	-0.20009934	1.5745036	0.84468356	0.28000152
488	1.948	1.6433403	0.032827885	-0.087233369	1.9406301	0.081473768	0.15607406	1.5206601	0.079949111	-0.11285846	1.8080439	0.10516332	0.16593627	1.5201719	0.095463579	-0.026797702	1.8345352	0.12526092	0.081334796	1.4452043	0.059516861	-0.068068525	1.758318	0.078841281	0.099334418	1.6137766	0.44128298	-0.12781964	1.8240717	0.49897071	0.15834742	1.595132	0.4466792	-0.0048847247	1.8066628	0.47251963	0.03369745	1.63489	0.83143172	-0.18914968	1.6587887	0.83142257	0.15870721	1.7142158	0.88096317	-0.1503007	1.7309355	0.8905813	0.094605305	1.5330339	0.95193334	-0.0088283438	1.6614883	1.3736975	-0.20549271	1.6348375	1.3538027	0.15574128	1.5666746	1.3926491	-0.032187599	1.7053216	1.0416532	-0.26795578	1.5077601	1.0636708	0.20771486	1.9516857	1.0306571	-0.19798352	1.5739992	0.84480015	0.28170465
489	1.952	1.6433307	0.032802174	-0.087249906	1.9556955	0.082816989	0.15573353	1.5207925	0.080152566	-0.11280451	1.8223515	0.10337086	0.16667359	1.5204785	0.095675253	-0.026759705	1.8478133	0.12422496	0.081938851	1.4452866	0.059945777	-0.067976119	1.7727825	0.076333176	0.10039002	1.6156881	0.4410724	-0.12779864	1.828457	0.4974266	0.15772298	1.5976284	0.44638915	-0.0048318622	1.810588	0.47033206	0.032881238	1.6381778	0.83102008	-0.18874514	1.6641124	0.83035068	0.15898167	1.7181653	0.88029376	-0.15059363	1.7361217	0.88953461	0.094613198	1.5371483	0.95117649	-0.0076817507	1.6655549	1.3731078	-0.20508632	1.6390621	1.3533865	0.15618552	1.5708406	1.3922121	-0.031657597	1.7116626	1.0413371	-0.26788383	1.5108033	1.0641409	0.20789977	1.9576	1.0340337	-0.19591277	1.5736433	0.84492923	0.28338775
490	1.956	1.6433203	0.032779844	-0.087268885	1.9705787	0.084324853	0.15540715	1.5209277	0.080355462	-0.11276849	1.8365158	0.10190968	0.16735658	1.5207865	0.095914095	-0.026737052	1.8609153	0.1233599	0.08249941	1.4453704	0.060385845	-0.06791059	1.7870515	0.074059115	0.10138039	1.6176853	0.44085325	-0.12777841	1.8328093	0.49577562	0.15712747	1.6001223	0.44611182	-0.004784343	1.8145978	0.46801247	0.032011371	1.6416087	0.83058476	-0.1884022	1.6694393	0.82922819	0.15924032	1.7220393	0.87966129	-0.15084487	1.7413176	0.88849606	0.094644827	1.5411592	0.95037036	-0.0065218105	1.6696302	1.372477	-0.20466281	1.6432985	1.3529464	0.15664308	1.5749952	1.3917289	-0.031099169	1.7179779	1.0409863	-0.26780356	1.5139019	1.0645654	0.20810235	1.9634174	1.037285	-0.19388737	1.5734609	0.84506909	0.28505088
